<svg xmlns="http://www.w3.org/2000/svg" xmlns:xlink="http://www.w3.org/1999/xlink" version="1.1" width="512" height="512" viewBox="0 0 512 512" xml:space="preserve">
<desc>Created with Fabric.js 3.5.0</desc>
<defs>
</defs>
<rect x="0" y="0" width="100%" height="100%" fill="#ffffff"/>
<g transform="matrix(12.5 0 0 12.5 256 256)" id="823648">
<g style="" vector-effect="non-scaling-stroke">
		<g transform="matrix(1 0 0 1 0 -0.1)" id="Layer_1">
<linearGradient id="SVGID_10" gradientUnits="userSpaceOnUse" gradientTransform="matrix(40 0 0 -39.7778 11115.001 16212.334)" x1="-277.375" y1="406.6018" x2="-277.375" y2="407.5726">
<stop offset="0%" style="stop-color:rgb(0,98,224);stop-opacity: 1"/>
<stop offset="100%" style="stop-color:rgb(25,175,255);stop-opacity: 1"/>
</linearGradient>
<path style="stroke: none; stroke-width: 1; stroke-dasharray: none; stroke-linecap: butt; stroke-dashoffset: 0; stroke-linejoin: miter; stroke-miterlimit: 4; is-custom-font: none; font-file-url: none; fill: url(#SVGID_10); fill-rule: nonzero; opacity: 1;" transform=" translate(-20, -19.9)" d="M 16.7 39.8 C 7.2 38.1 0 29.9 0 20 C 0 9 9 0 20 0 s 20 9 20 20 c 0 9.9 -7.2 18.1 -16.7 19.8 l -1.1 -0.9 h -4.4 L 16.7 39.8 z" stroke-linecap="round"/>
</g>
		<g transform="matrix(1 0 0 1 0.4 3.9)" id="Layer_1">
<path style="stroke: none; stroke-width: 1; stroke-dasharray: none; stroke-linecap: butt; stroke-dashoffset: 0; stroke-linejoin: miter; stroke-miterlimit: 4; is-custom-font: none; font-file-url: none; fill: rgb(255,255,255); fill-rule: nonzero; opacity: 1;" transform=" translate(-20.4, -23.9)" d="M 27.8 25.6 l 0.9 -5.6 h -5.3 v -3.9 c 0 -1.6 0.6 -2.8 3 -2.8 h 2.6 V 8.2 c -1.4 -0.2 -3 -0.4 -4.4 -0.4 c -4.6 0 -7.8 2.8 -7.8 7.8 V 20 h -5 v 5.6 h 5 v 14.1 c 1.1 0.2 2.2 0.3 3.3 0.3 c 1.1 0 2.2 -0.1 3.3 -0.3 V 25.6 H 27.8 z" stroke-linecap="round"/>
</g>
</g>
</g>
</svg>