<svg xmlns="http://www.w3.org/2000/svg" xmlns:xlink="http://www.w3.org/1999/xlink" version="1.1" width="512" height="512" viewBox="0 0 512 512" xml:space="preserve">
<desc>Created with Fabric.js 3.5.0</desc>
<defs>
</defs>
<rect x="0" y="0" width="100%" height="100%" fill="#ffffff"/>
<g transform="matrix(35.6192 0 0 35.6192 255.9998 255.9998)" id="318984">
<g style="" vector-effect="non-scaling-stroke">
		<g transform="matrix(0.0313 0 0 0.0313 0.0129 0.0129)">
<rect style="stroke: none; stroke-width: 1; stroke-dasharray: none; stroke-linecap: butt; stroke-dashoffset: 0; stroke-linejoin: miter; stroke-miterlimit: 4; is-custom-font: none; font-file-url: none; fill: rgb(255,255,255); fill-opacity: 0; fill-rule: nonzero; opacity: 1;" x="-256" y="-256" rx="0" ry="0" width="512" height="512"/>
</g>
		<g transform="matrix(0.0313 0 0 0.0313 0.0113 0.0113)">
<path style="stroke: none; stroke-width: 1; stroke-dasharray: none; stroke-linecap: butt; stroke-dashoffset: 0; stroke-linejoin: miter; stroke-miterlimit: 4; is-custom-font: none; font-file-url: none; fill: rgb(0,0,0); fill-rule: nonzero; opacity: 1;" transform=" translate(-256, -256.0001)" d="M 256 32 C 132.3 32 32 134.9 32 261.7 c 0 101.5 64.2 187.5 153.2 217.9 a 17.56 17.56 0 0 0 3.8 0.4 c 8.3 0 11.5 -6.1 11.5 -11.4 c 0 -5.5 -0.2 -19.9 -0.3 -39.1 a 102.4 102.4 0 0 1 -22.6 2.7 c -43.1 0 -52.9 -33.5 -52.9 -33.5 c -10.2 -26.5 -24.9 -33.6 -24.9 -33.6 c -19.5 -13.7 -0.1 -14.1 1.4 -14.1 h 0.1 c 22.5 2 34.3 23.8 34.3 23.8 c 11.2 19.6 26.2 25.1 39.6 25.1 a 63 63 0 0 0 25.6 -6 c 2 -14.8 7.8 -24.9 14.2 -30.7 c -49.7 -5.8 -102 -25.5 -102 -113.5 c 0 -25.1 8.7 -45.6 23 -61.6 c -2.3 -5.8 -10 -29.2 2.2 -60.8 a 18.64 18.64 0 0 1 5 -0.5 c 8.1 0 26.4 3.1 56.6 24.1 a 208.21 208.21 0 0 1 112.2 0 c 30.2 -21 48.5 -24.1 56.6 -24.1 a 18.64 18.64 0 0 1 5 0.5 c 12.2 31.6 4.5 55 2.2 60.8 c 14.3 16.1 23 36.6 23 61.6 c 0 88.2 -52.4 107.6 -102.3 113.3 c 8 7.1 15.2 21.1 15.2 42.5 c 0 30.7 -0.3 55.5 -0.3 63 c 0 5.4 3.1 11.5 11.4 11.5 a 19.35 19.35 0 0 0 4 -0.4 C 415.9 449.2 480 363.1 480 261.7 C 480 134.9 379.7 32 256 32 Z" stroke-linecap="round"/>
</g>
</g>
</g>
</svg>