<svg xmlns="http://www.w3.org/2000/svg" xmlns:xlink="http://www.w3.org/1999/xlink" version="1.1" width="512" height="512" viewBox="0 0 512 512" xml:space="preserve">
<desc>Created with Fabric.js 3.5.0</desc>
<defs>
</defs>
<rect x="0" y="0" width="100%" height="100%" fill="#ffffff"/>
<g transform="matrix(3.2553 0 0 3.2553 256.0006 256.0006)" id="9618">
<g style="" vector-effect="non-scaling-stroke">
		<g transform="matrix(0.1133 0 0 0.1133 -0.0241 -0.0241)" id="Capa_x0020_1">
<path style="stroke: none; stroke-width: 1; stroke-dasharray: none; stroke-linecap: butt; stroke-dashoffset: 0; stroke-linejoin: miter; stroke-miterlimit: 4; is-custom-font: none; font-file-url: none; fill: rgb(0,0,0); fill-rule: evenodd; opacity: 1;" transform=" translate(-674.965, -674.965)" d="M 286.92 0 l 776.09 0 c 157.81 0 286.92 129.11 286.92 286.92 l 0 776.09 c 0 157.81 -129.11 286.92 -286.92 286.92 l -776.09 0 c -157.81 0 -286.92 -129.11 -286.92 -286.92 l 0 -776.09 c 0 -157.81 129.11 -286.92 286.92 -286.92 z" stroke-linecap="round"/>
</g>
		<g transform="matrix(0.1133 0 0 0.1133 -0.0142 -0.018)" id="Capa_x0020_1">
<path style="stroke: none; stroke-width: 1; stroke-dasharray: none; stroke-linecap: butt; stroke-dashoffset: 0; stroke-linejoin: miter; stroke-miterlimit: 4; is-custom-font: none; font-file-url: none; fill: rgb(255,255,255); fill-rule: nonzero; opacity: 1;" transform=" translate(-674.9793, -674.9664)" d="M 679.49 1183.35 c -102.8 0 -150.07 -12.67 -228.6 -54.95 c -68.04 -36.63 -126.7 -85.66 -158.1 -156.03 c -112.51 -252.07 -78.33 -629.07 162.11 -754.36 c 122.09 -63.61 315.76 -70.6 439.8 -7.54 c 118.98 60.49 176.55 154.86 224.17 275.94 l -97.2 27.77 c -44.89 -163.08 -153.05 -253.43 -328.61 -253.43 c -69.38 0 -132.34 6.97 -185.25 33.2 c -126.56 62.71 -178.42 209.82 -183.52 358.83 c -3.71 108.28 13.79 217.58 62.11 296.22 c 55.27 89.94 170.12 146.82 277.78 146.82 c 100.84 0 181.98 -17.53 244.56 -76.23 c 85.22 -79.95 102.98 -207.44 -5.65 -285.17 c -33.46 285.57 -420.7 269.28 -420.7 42.3 c 0 -47.13 18.33 -88.26 54.98 -123.38 c 72.79 -69.75 182.31 -49.14 273.65 -50.52 c -9.63 -43.11 -46.28 -105.57 -116.63 -105.57 c -54.21 0 -100.92 13.63 -126.03 55.61 l -75.67 -49.09 c 32.05 -60.18 96.67 -99.7 195.81 -99.7 c 99.14 0 196.19 64.87 212.28 187.89 l 4.97 37.99 c 56.04 22.61 96.38 64.79 124.39 107.29 c 78.75 119.5 35.33 272.79 -77.13 368.09 c -61.36 52 -152.55 78.01 -273.51 78.01 z m -106.75 -408.55 c 0 46.76 49.61 81.73 97.64 81.73 c 53.58 0 90.42 -15.11 110.51 -45.33 c 20.09 -30.22 30.14 -66.62 30.14 -109.18 c -55.04 -13.99 -150.8 -24.02 -201.55 9.57 c -23.9 15.82 -36.73 35.97 -36.73 63.21 z" stroke-linecap="round"/>
</g>
</g>
</g>
</svg>