<?xml version="1.0" encoding="UTF-8"?>
<svg xmlns="http://www.w3.org/2000/svg" xmlns:xlink="http://www.w3.org/1999/xlink" width="365pt" height="326.74pt" viewBox="0 0 365 326.74" version="1.1">
<defs>
<clipPath id="clip1">
  <path d="M 0 0 L 365 0 L 365 326.738281 L 0 326.738281 Z M 0 0 "/>
</clipPath>
</defs>
<g id="surface1">
<g clip-path="url(#clip1)" clip-rule="nonzero">
<path style=" stroke:none;fill-rule:nonzero;fill:rgb(10.198975%,27.099609%,61.199951%);fill-opacity:1;" d="M 365 326.738281 L 0 326.738281 L 0 0 L 365 0 L 365 326.738281 "/>
</g>
<path style=" stroke:none;fill-rule:nonzero;fill:rgb(100%,100%,100%);fill-opacity:1;" d="M 354.910156 143.792969 L 343.75 140.09375 L 345.664063 117.839844 L 325.453125 121.492188 L 321.195313 109.996094 L 315.054688 115.480469 C 311.238281 119.5625 309.359375 121.332031 305.269531 124.84375 C 305.992188 115.066406 307.261719 103.476563 307.273438 103.300781 L 308.105469 93.546875 C 308.105469 93.546875 305.042969 94.886719 298.921875 97.242188 C 303.511719 73.074219 313.632813 57.558594 313.632813 57.558594 C 313.632813 57.558594 306.0625 57.050781 300.835938 58.324219 C 304.574219 50.035156 314.992188 35.964844 314.992188 35.964844 C 314.992188 35.964844 306.511719 35.835938 302.046875 36.601563 C 297.515625 37.378906 295.667969 37.777344 292.164063 39.152344 C 292.164063 39.152344 292.929688 34.304688 293.054688 31.5 C 293.4375 22.957031 292.289063 16.578125 292.289063 16.578125 L 279.277344 30.609375 C 277.847656 32.792969 273.785156 35.667969 271.828125 37.46875 C 269.648438 39.464844 267.023438 41.335938 263.554688 43.371094 C 260.148438 45.371094 256.390625 47.285156 251.714844 49.398438 C 246.429688 51.792969 241.605469 53.707031 236.976563 55.253906 C 233.226563 56.503906 229.40625 57.601563 225.839844 58.601563 C 222.5 59.539063 219.074219 60.460938 215.652344 61.335938 C 212.300781 62.195313 208.742188 63.0625 205.078125 63.90625 L 204.394531 64.0625 L 204.300781 64.105469 C 197 65.4375 189.605469 66.582031 182.300781 67.511719 C 178.527344 67.992188 174.65625 68.429688 170.914063 68.855469 C 168.03125 69.183594 165.148438 69.511719 162.269531 69.859375 C 155.21875 70.71875 148.054688 71.734375 141.066406 72.871094 C 135.078125 73.765625 129.179688 75.410156 123.53125 77.765625 C 118.71875 79.777344 114.675781 82.0625 111.175781 84.753906 C 108.542969 86.777344 106.28125 88.984375 104.09375 91.121094 L 103.117188 92.070313 C 101.945313 93.210938 100.613281 94.503906 99.398438 95.992188 C 98.46875 97.128906 97.671875 98.34375 97.023438 99.617188 L 95.214844 100.585938 C 93.898438 101.105469 91.296875 102.1875 89.675781 103.238281 C 87.867188 104.410156 86.027344 105.949219 84.523438 107.546875 C 83.078125 109.066406 82.085938 110.648438 81.429688 111.699219 L 81.230469 112.019531 C 81.082031 112.253906 80.921875 112.523438 80.75 112.816406 C 79.546875 113.042969 77.839844 113.304688 76.574219 113.503906 C 75.332031 113.691406 74.082031 113.886719 72.96875 114.078125 C 68.726563 114.792969 63.496094 115.785156 59.636719 116.605469 C 55.828125 117.417969 52.566406 118.144531 48.988281 119.066406 C 47.988281 119.328125 46.980469 119.582031 45.972656 119.839844 C 43.625 120.433594 41.195313 121.046875 38.898438 121.71875 C 35.933594 122.582031 32.566406 123.664063 29.644531 124.6875 C 26.800781 125.6875 25.003906 126.394531 23.199219 127.230469 C 21.394531 128.078125 20.15625 128.855469 19.253906 129.421875 L 18.945313 129.613281 C 17.523438 130.496094 16.28125 131.523438 15.101563 132.804688 C 14.265625 133.730469 13.785156 134.6875 13.527344 135.203125 L 13.492188 135.273438 C 12.851563 136.4375 11.75 138.691406 11.78125 141.664063 C 11.808594 144.339844 13.695313 146.246094 13.695313 146.246094 C 14.042969 146.78125 15.003906 147.96875 15.449219 148.453125 C 15.625 148.640625 15.832031 148.839844 16.058594 149.050781 L 26.894531 155.269531 C 29.75 156.511719 32.527344 157.636719 35.15625 158.613281 C 39.128906 160.097656 42.578125 161.261719 47.066406 162.636719 C 51.792969 164.082031 58.992188 165.992188 64.75 167.5 C 69.828125 168.824219 72.515625 169.460938 75.824219 170.132813 C 79.722656 170.914063 82.839844 171.59375 84.03125 171.855469 L 84.839844 172.027344 C 86.503906 172.386719 87.710938 172.644531 89.265625 173.121094 C 89.789063 173.285156 90.320313 173.441406 90.859375 173.601563 C 92.484375 174.078125 94.023438 174.527344 95.769531 175.269531 C 98.242188 176.320313 101.175781 177.855469 103.824219 179.492188 C 106.234375 180.972656 108.902344 182.890625 112.214844 185.515625 C 115.191406 187.878906 118.195313 190.515625 120.683594 192.949219 C 123.222656 195.417969 124.863281 197.246094 127.804688 200.65625 C 131.640625 205.121094 135 209.3125 137.78125 213.109375 C 141.683594 218.449219 146.441406 225.9375 148.308594 228.917969 C 151.171875 233.476563 152.820313 236.375 155.199219 240.609375 C 157.289063 244.324219 159.675781 248.78125 162.496094 254.242188 C 162.996094 255.214844 163.503906 256.1875 164.015625 257.167969 C 165.914063 260.808594 167.878906 264.570313 169.449219 268.183594 C 170.71875 271.09375 171.777344 274.070313 172.898438 277.21875 C 173.519531 278.964844 174.136719 280.699219 174.777344 282.394531 C 176.574219 287.160156 180.125 296.425781 180.125 296.425781 L 184.90625 311.5625 L 193.066406 297.285156 C 193.136719 297.152344 200.390625 283.84375 203.699219 278.222656 C 207.332031 272.03125 210.363281 267.257813 213.101563 263.023438 C 216.242188 258.164063 219.339844 253.570313 222.578125 248.984375 C 226.007813 244.109375 228.984375 239.984375 232.347656 235.679688 C 236.449219 230.425781 241.597656 224.429688 243.617188 222.097656 C 244.992188 220.511719 246.105469 219.335938 247.183594 218.199219 C 248.578125 216.734375 250.015625 215.214844 251.828125 213.011719 C 253.703125 210.726563 256.980469 207.734375 259.871094 205.097656 C 260.796875 204.253906 261.6875 203.4375 262.496094 202.683594 C 265.878906 199.53125 271.964844 194.234375 272.023438 194.183594 L 275.582031 190.980469 L 279.628906 198.144531 L 285.65625 188.175781 L 324.109375 191.234375 L 313.84375 179.121094 L 354.910156 143.792969 "/>
<path style=" stroke:none;fill-rule:nonzero;fill:rgb(10.198975%,27.099609%,61.199951%);fill-opacity:1;" d="M 206.679688 70.863281 C 210.273438 70.035156 213.859375 69.167969 217.429688 68.253906 C 220.886719 67.367188 224.335938 66.441406 227.769531 65.476563 C 231.613281 64.402344 235.445313 63.292969 239.234375 62.027344 C 244.484375 60.277344 249.621094 58.1875 254.660156 55.902344 C 258.933594 53.972656 263.136719 51.898438 267.171875 49.527344 C 270.53125 47.558594 273.78125 45.363281 276.652344 42.734375 C 279.03125 40.546875 281.144531 38.070313 282.914063 35.367188 C 283.171875 37.242188 283.226563 39.140625 283.074219 41.019531 C 282.953125 42.523438 282.695313 44.011719 282.398438 45.484375 C 282.070313 47.125 281.675781 48.746094 281.226563 50.355469 L 290.382813 46.320313 C 294.371094 44.558594 298.558594 43.085938 302.910156 42.910156 L 300.972656 44.640625 C 299.597656 46.191406 298.277344 47.78125 297.023438 49.429688 C 295.730469 51.117188 294.5 52.863281 293.324219 54.640625 C 291.476563 57.4375 289.765625 60.332031 288.203125 63.300781 L 284.753906 70.945313 L 287.109375 69.097656 C 288.46875 68.285156 289.84375 67.503906 291.226563 66.738281 C 292.609375 65.976563 294.015625 65.246094 295.511719 64.722656 C 296.734375 64.296875 298.011719 64.015625 299.300781 63.886719 C 300.441406 63.773438 301.597656 63.773438 302.742188 63.886719 C 302.074219 64.449219 301.453125 65.066406 300.890625 65.734375 C 299.765625 67.078125 298.882813 68.621094 298.285156 70.269531 C 297.320313 72.375 296.476563 74.539063 295.761719 76.742188 C 294.765625 79.804688 294.023438 82.949219 293.246094 86.074219 C 292.496094 89.082031 291.710938 92.082031 290.890625 95.066406 L 278.703125 74.980469 L 264.246094 98.515625 L 250.464844 93.054688 L 253.570313 124.3125 L 238.027344 109.519531 L 233.316406 120.785156 L 213.796875 117.722656 L 213.796875 121.417969 C 210.886719 121.128906 207.984375 120.808594 205.082031 120.445313 C 201.246094 119.972656 197.417969 119.425781 193.648438 118.605469 C 190.425781 117.90625 187.242188 117.003906 184.074219 116.082031 C 180.71875 115.101563 177.382813 114.078125 174.070313 112.96875 C 170.773438 111.859375 167.511719 110.660156 164.214844 109.5625 C 161.929688 108.796875 159.632813 108.089844 157.324219 107.421875 C 159.890625 107.042969 162.46875 106.761719 165.058594 106.5625 C 167.277344 106.394531 169.503906 106.289063 171.730469 106.3125 C 174.417969 106.3125 177.09375 106.554688 179.746094 106.949219 C 176.210938 105.675781 172.601563 104.617188 168.941406 103.765625 C 165.316406 102.921875 161.640625 102.285156 157.953125 101.808594 C 154.878906 101.414063 151.785156 101.144531 148.691406 101.03125 C 145.914063 100.933594 143.140625 100.949219 140.367188 101.117188 C 137.714844 101.261719 135.0625 101.503906 132.464844 102.042969 C 130.101563 102.535156 127.792969 103.28125 125.574219 104.230469 C 124.273438 104.785156 123.003906 105.421875 121.773438 106.117188 C 118.4375 107.597656 115.847656 110.671875 114.953125 114.214844 C 114.304688 116.796875 114.546875 119.59375 115.613281 122.03125 C 113.25 122.109375 110.878906 121.417969 108.910156 120.109375 C 107.453125 119.144531 106.230469 117.847656 105.195313 116.441406 C 104.246094 115.15625 103.441406 113.757813 102.878906 112.261719 C 101.980469 109.859375 101.746094 107.164063 102.523438 104.71875 C 103.015625 103.175781 103.890625 101.777344 104.921875 100.523438 C 105.941406 99.269531 107.117188 98.144531 108.273438 97.019531 C 110.621094 94.734375 112.929688 92.410156 115.527344 90.417969 C 118.796875 87.902344 122.472656 85.945313 126.28125 84.355469 C 131.355469 82.242188 136.6875 80.746094 142.121094 79.933594 C 149.101563 78.800781 156.109375 77.804688 163.128906 76.949219 C 169.816406 76.140625 176.523438 75.445313 183.203125 74.59375 C 191.109375 73.589844 198.988281 72.359375 206.824219 70.90625 "/>
<path style=" stroke:none;fill-rule:nonzero;fill:rgb(3.898621%,12.199402%,25.498962%);fill-opacity:1;" d="M 138.535156 120.605469 L 138.535156 129.324219 L 133.910156 129.324219 C 133.910156 129.324219 134.117188 126.945313 134.457031 125.808594 C 134.707031 124.972656 135.0625 124.136719 135.527344 123.398438 C 135.960938 122.699219 136.507813 122.070313 137.121094 121.523438 C 137.546875 121.144531 138.535156 120.582031 138.535156 120.582031 Z M 98.117188 107.046875 C 98.117188 107.046875 94.878906 108.316406 93.460938 109.234375 C 92.046875 110.148438 90.726563 111.324219 89.648438 112.46875 C 88.5625 113.609375 87.808594 114.945313 87.238281 115.84375 C 86.664063 116.746094 85.867188 118.417969 84.757813 119.09375 C 83.65625 119.769531 78.164063 120.429688 74.152344 121.121094 C 70.144531 121.796875 65.023438 122.761719 61.121094 123.589844 C 57.234375 124.417969 54.125 125.117188 50.785156 125.980469 C 47.449219 126.847656 44.03125 127.660156 40.894531 128.578125 C 37.773438 129.484375 34.515625 130.546875 32.011719 131.425781 C 29.519531 132.300781 27.855469 132.945313 26.238281 133.691406 C 24.628906 134.449219 23.609375 135.125 22.714844 135.679688 C 21.824219 136.234375 21.074219 136.859375 20.398438 137.59375 C 19.730469 138.332031 19.335938 139.386719 19.335938 139.386719 L 102.976563 139.644531 C 102.976563 139.644531 103.765625 138.527344 104.238281 138.019531 C 104.714844 137.519531 105.140625 137.101563 106.234375 136.507813 C 107.320313 135.910156 108.679688 135.445313 110.078125 135.109375 C 111.476563 134.777344 112.828125 134.714844 114.203125 134.691406 C 115.578125 134.691406 117.003906 134.609375 118.636719 135.027344 C 120.277344 135.421875 121.972656 136.097656 123.308594 136.820313 C 124.636719 137.546875 125.796875 138.4375 126.726563 139.167969 C 127.652344 139.917969 128.441406 140.890625 129.367188 141.648438 C 130.289063 142.402344 131.128906 143.117188 132.214844 143.875 C 133.308594 144.632813 134.609375 145.589844 135.90625 146.167969 C 137.199219 146.753906 138.359375 147.101563 139.699219 147.355469 C 141.042969 147.605469 142.410156 147.695313 143.949219 147.679688 C 145.484375 147.679688 147.40625 147.40625 148.976563 146.929688 C 150.535156 146.457031 151.976563 145.667969 153.246094 144.910156 C 154.515625 144.164063 155.601563 143.296875 156.601563 142.484375 C 157.605469 141.671875 158.34375 140.882813 159.277344 140.0625 C 160.210938 139.242188 161.097656 138.277344 162.207031 137.546875 C 163.316406 136.804688 164.585938 136.234375 165.785156 135.808594 C 166.984375 135.382813 168.035156 135.09375 169.332031 134.945313 C 170.628906 134.808594 215.273438 134.867188 215.273438 134.867188 L 215.097656 128.054688 C 215.097656 128.054688 176.175781 128.136719 169.589844 128.054688 C 168.277344 127.941406 167.28125 127.691406 166.363281 127.410156 C 165.445313 127.128906 165.164063 126.894531 164.113281 126.332031 C 163.058594 125.761719 161.933594 125.023438 160.757813 124.121094 C 159.585938 123.21875 158.257813 121.910156 157.105469 120.910156 C 155.949219 119.90625 154.96875 118.917969 153.839844 118.121094 C 152.707031 117.324219 151.605469 116.65625 150.367188 116.140625 C 149.121094 115.628906 147.785156 115.25 146.433594 115.0625 C 145.082031 114.886719 143.699219 114.945313 142.332031 115.0625 C 140.957031 115.191406 139.699219 115.328125 138.230469 115.828125 C 137.222656 116.175781 135.847656 116.835938 135.011719 117.355469 C 133.554688 118.28125 132.421875 119.3125 131.046875 120.347656 C 129.792969 121.304688 128.59375 122.390625 127.363281 123.308594 C 125.988281 124.339844 124.839844 125.269531 123.230469 126.1875 C 122.078125 126.839844 120.367188 127.765625 119.054688 127.949219 C 117.398438 128.175781 116.554688 128.191406 115.28125 128.09375 C 114.027344 128.007813 113.070313 127.828125 111.785156 127.410156 C 110.496094 127 109.1875 126.429688 107.882813 125.601563 C 106.589844 124.773438 105.316406 123.660156 104.109375 122.40625 C 102.914063 121.152344 101.65625 119.664063 100.742188 118.058594 C 99.816406 116.449219 98.964844 114.355469 98.488281 112.507813 C 98.015625 110.65625 98.117188 107.03125 98.117188 107.03125 L 98.117188 107.046875 "/>
<path style=" stroke:none;fill-rule:nonzero;fill:rgb(0.799561%,0.799561%,0.799561%);fill-opacity:1;" d="M 138.535156 120.605469 L 138.425781 120.605469 L 138.425781 129.214844 L 133.910156 129.214844 L 133.910156 129.324219 L 134.019531 129.335938 C 134.019531 129.332031 134.070313 128.742188 134.164063 128.007813 C 134.257813 127.273438 134.394531 126.394531 134.5625 125.839844 C 134.808594 125.011719 135.160156 124.183594 135.617188 123.453125 C 136.046875 122.765625 136.585938 122.144531 137.191406 121.605469 C 137.394531 121.425781 137.746094 121.1875 138.046875 121.003906 C 138.34375 120.816406 138.589844 120.675781 138.589844 120.675781 L 138.535156 120.582031 L 138.425781 120.582031 L 138.425781 120.605469 L 138.644531 120.605469 L 138.644531 120.394531 L 138.480469 120.488281 C 138.476563 120.488281 137.492188 121.050781 137.046875 121.441406 C 136.429688 121.996094 135.875 122.628906 135.433594 123.339844 C 134.960938 124.089844 134.605469 124.933594 134.351563 125.777344 C 134.011719 126.933594 133.804688 129.3125 133.800781 129.316406 L 133.792969 129.433594 L 138.644531 129.433594 L 138.644531 120.605469 Z M 98.117188 107.046875 L 98.078125 106.945313 C 98.074219 106.945313 94.839844 108.214844 93.402344 109.140625 C 91.976563 110.066406 90.652344 111.246094 89.570313 112.390625 C 88.472656 113.546875 87.714844 114.890625 87.144531 115.785156 C 86.570313 116.699219 85.769531 118.355469 84.703125 119 C 84.195313 119.316406 82.535156 119.660156 80.527344 119.992188 C 78.519531 120.328125 76.140625 120.667969 74.132813 121.015625 C 70.125 121.691406 65 122.65625 61.097656 123.484375 C 57.214844 124.3125 54.097656 125.011719 50.757813 125.875 C 47.421875 126.742188 44.003906 127.554688 40.863281 128.472656 C 37.738281 129.382813 34.480469 130.445313 31.976563 131.320313 C 29.480469 132.199219 27.8125 132.84375 26.191406 133.59375 C 24.578125 134.351563 23.546875 135.03125 22.65625 135.585938 C 21.757813 136.144531 21 136.78125 20.320313 137.519531 C 19.632813 138.28125 19.238281 139.34375 19.234375 139.347656 L 19.179688 139.496094 L 103.03125 139.753906 L 103.066406 139.707031 C 103.066406 139.707031 103.261719 139.429688 103.515625 139.085938 C 103.773438 138.746094 104.089844 138.339844 104.320313 138.09375 C 104.792969 137.597656 105.199219 137.195313 106.285156 136.601563 C 107.359375 136.015625 108.710938 135.550781 110.105469 135.214844 C 111.492188 134.886719 112.832031 134.820313 114.207031 134.796875 L 114.203125 134.691406 L 114.203125 134.796875 C 114.589844 134.796875 114.972656 134.792969 115.367188 134.792969 C 116.382813 134.792969 117.441406 134.835938 118.609375 135.132813 C 120.242188 135.523438 121.933594 136.195313 123.257813 136.914063 C 124.574219 137.636719 125.730469 138.523438 126.660156 139.253906 L 126.726563 139.167969 L 126.660156 139.253906 C 127.574219 139.992188 128.359375 140.964844 129.296875 141.730469 C 130.222656 142.484375 131.058594 143.203125 132.152344 143.964844 C 133.242188 144.71875 134.550781 145.679688 135.859375 146.265625 C 137.164063 146.855469 138.332031 147.207031 139.679688 147.464844 C 140.933594 147.695313 142.203125 147.789063 143.605469 147.789063 C 143.71875 147.789063 143.832031 147.789063 143.949219 147.789063 C 145.496094 147.785156 147.425781 147.511719 149.007813 147.035156 C 150.582031 146.554688 152.027344 145.761719 153.300781 145.007813 C 154.578125 144.253906 155.671875 143.378906 156.667969 142.566406 C 157.679688 141.75 158.421875 140.960938 159.351563 140.144531 C 160.289063 139.316406 161.171875 138.355469 162.265625 137.636719 C 163.363281 136.902344 164.628906 136.335938 165.820313 135.910156 C 167.015625 135.484375 168.058594 135.199219 169.34375 135.054688 C 170.03125 134.980469 183.78125 134.964844 196.046875 134.964844 C 201.101563 134.964844 205.910156 134.96875 209.453125 134.96875 C 212.996094 134.972656 215.269531 134.976563 215.273438 134.976563 L 215.386719 134.976563 L 215.203125 127.945313 L 215.097656 127.945313 C 215.097656 127.945313 214.015625 127.949219 212.183594 127.949219 C 206.6875 127.960938 194.429688 127.980469 184.316406 127.980469 C 177.574219 127.980469 171.785156 127.972656 169.589844 127.945313 L 169.589844 128.054688 L 169.597656 127.945313 C 168.296875 127.835938 167.308594 127.585938 166.394531 127.308594 C 165.492188 127.027344 165.226563 126.804688 164.164063 126.238281 C 163.117188 125.667969 161.992188 124.933594 160.824219 124.035156 C 159.65625 123.140625 158.332031 121.828125 157.179688 120.828125 C 156.023438 119.828125 155.039063 118.835938 153.902344 118.03125 C 152.765625 117.234375 151.65625 116.5625 150.40625 116.042969 C 149.152344 115.523438 147.808594 115.144531 146.449219 114.957031 C 145.828125 114.875 145.203125 114.84375 144.578125 114.84375 C 143.824219 114.84375 143.070313 114.890625 142.320313 114.957031 C 140.945313 115.085938 139.679688 115.222656 138.195313 115.726563 C 137.179688 116.074219 135.800781 116.734375 134.953125 117.265625 C 133.488281 118.195313 132.351563 119.226563 130.980469 120.261719 C 129.722656 121.222656 128.523438 122.308594 127.296875 123.222656 C 125.921875 124.253906 124.773438 125.183594 123.175781 126.09375 C 122.027344 126.742188 120.316406 127.664063 119.039063 127.84375 C 118 127.984375 117.28125 128.042969 116.582031 128.042969 C 116.167969 128.042969 115.757813 128.019531 115.289063 127.984375 C 114.042969 127.898438 113.097656 127.722656 111.816406 127.308594 C 110.539063 126.898438 109.234375 126.332031 107.941406 125.507813 C 106.65625 124.6875 105.390625 123.582031 104.1875 122.332031 C 102.996094 121.082031 101.746094 119.601563 100.835938 118.003906 C 99.914063 116.402344 99.066406 114.320313 98.59375 112.480469 C 98.269531 111.21875 98.21875 109.078125 98.21875 107.894531 C 98.21875 107.371094 98.226563 107.035156 98.226563 107.03125 L 98.117188 107.03125 L 98.011719 107.027344 L 98.011719 107.046875 L 98.117188 107.046875 L 98.078125 106.945313 L 98.117188 107.046875 L 98.226563 107.046875 L 98.226563 107.03125 L 98.011719 107.027344 C 98.011719 107.027344 98 107.367188 98 107.894531 C 98 109.085938 98.050781 111.226563 98.382813 112.535156 C 98.859375 114.394531 99.714844 116.492188 100.648438 118.109375 C 101.570313 119.730469 102.828125 121.226563 104.03125 122.484375 C 105.242188 123.742188 106.519531 124.859375 107.824219 125.691406 C 109.136719 126.527344 110.457031 127.101563 111.75 127.515625 C 113.042969 127.933594 114.015625 128.113281 115.273438 128.203125 C 115.746094 128.238281 116.160156 128.257813 116.582031 128.257813 C 117.296875 128.257813 118.023438 128.199219 119.070313 128.058594 C 120.414063 127.867188 122.128906 126.933594 123.28125 126.28125 C 124.898438 125.359375 126.054688 124.421875 127.429688 123.394531 C 128.664063 122.476563 129.863281 121.386719 131.113281 120.433594 C 132.492188 119.394531 133.625 118.367188 135.070313 117.449219 C 135.894531 116.933594 137.269531 116.273438 138.265625 115.929688 C 139.722656 115.4375 140.96875 115.300781 142.34375 115.171875 C 143.085938 115.105469 143.835938 115.0625 144.578125 115.0625 C 145.195313 115.0625 145.8125 115.09375 146.417969 115.171875 C 147.761719 115.355469 149.085938 115.730469 150.324219 116.242188 C 151.554688 116.753906 152.648438 117.414063 153.777344 118.210938 C 154.894531 118.996094 155.871094 119.984375 157.035156 120.992188 C 158.183594 121.988281 159.507813 123.300781 160.691406 124.207031 C 161.871094 125.109375 163 125.855469 164.058594 126.429688 C 165.105469 126.988281 165.402344 127.230469 166.332031 127.515625 C 167.253906 127.796875 168.261719 128.050781 169.578125 128.160156 L 169.585938 128.164063 L 169.589844 128.164063 C 171.785156 128.191406 177.574219 128.199219 184.316406 128.199219 C 197.800781 128.199219 215.097656 128.164063 215.097656 128.164063 L 215.097656 128.054688 L 214.988281 128.058594 L 215.164063 134.867188 L 215.273438 134.867188 L 215.273438 134.757813 C 215.273438 134.757813 206.160156 134.746094 196.046875 134.746094 C 183.773438 134.746094 170.054688 134.761719 169.320313 134.839844 C 168.015625 134.984375 166.949219 135.277344 165.746094 135.703125 C 164.542969 136.132813 163.265625 136.707031 162.144531 137.453125 C 161.023438 138.195313 160.132813 139.164063 159.207031 139.980469 C 158.269531 140.804688 157.53125 141.59375 156.53125 142.398438 C 155.535156 143.210938 154.453125 144.074219 153.191406 144.816406 C 151.921875 145.574219 150.488281 146.355469 148.941406 146.828125 C 147.386719 147.296875 145.472656 147.570313 143.949219 147.570313 L 143.945313 147.570313 C 143.832031 147.570313 143.71875 147.570313 143.605469 147.570313 C 142.210938 147.570313 140.953125 147.480469 139.722656 147.25 C 138.386719 146.992188 137.238281 146.652344 135.949219 146.066406 C 134.671875 145.496094 133.371094 144.542969 132.273438 143.785156 C 131.195313 143.03125 130.359375 142.320313 129.433594 141.5625 C 128.519531 140.816406 127.734375 139.84375 126.796875 139.085938 C 125.859375 138.351563 124.699219 137.453125 123.363281 136.726563 C 122.015625 135.996094 120.3125 135.316406 118.660156 134.921875 L 118.636719 135.027344 L 118.664063 134.921875 C 117.472656 134.617188 116.390625 134.574219 115.367188 134.574219 C 114.972656 134.574219 114.585938 134.582031 114.203125 134.582031 C 112.824219 134.605469 111.464844 134.667969 110.054688 135.003906 C 108.648438 135.34375 107.28125 135.808594 106.183594 136.410156 C 105.082031 137.011719 104.636719 137.445313 104.160156 137.945313 C 103.675781 138.464844 102.890625 139.578125 102.886719 139.582031 L 102.976563 139.644531 L 102.976563 139.535156 L 19.339844 139.277344 L 19.335938 139.386719 L 19.441406 139.425781 C 19.441406 139.425781 19.535156 139.167969 19.714844 138.816406 C 19.894531 138.464844 20.15625 138.023438 20.480469 137.664063 L 20.398438 137.59375 L 20.480469 137.667969 C 21.148438 136.941406 21.886719 136.320313 22.773438 135.769531 C 23.667969 135.214844 24.683594 134.542969 26.285156 133.789063 C 27.894531 133.046875 29.558594 132.402344 32.050781 131.527344 C 34.546875 130.652344 37.804688 129.589844 40.921875 128.679688 C 44.054688 127.765625 47.472656 126.953125 50.8125 126.085938 C 54.148438 125.222656 57.257813 124.523438 61.144531 123.695313 C 65.042969 122.867188 70.164063 121.902344 74.167969 121.226563 C 76.171875 120.882813 78.550781 120.546875 80.566406 120.210938 C 82.585938 119.867188 84.222656 119.546875 84.816406 119.1875 C 85.96875 118.480469 86.761719 116.792969 87.328125 115.902344 C 87.902344 114.996094 88.652344 113.671875 89.726563 112.542969 C 90.800781 111.402344 92.113281 110.234375 93.519531 109.324219 C 94.21875 108.871094 95.378906 108.324219 96.363281 107.894531 C 97.351563 107.464844 98.15625 107.148438 98.160156 107.148438 L 98.226563 107.121094 L 98.226563 107.046875 L 98.117188 107.046875 "/>
<path style=" stroke:none;fill-rule:nonzero;fill:rgb(85.499573%,17.298889%,15.299988%);fill-opacity:1;" d="M 240.253906 118.277344 L 253.957031 131.195313 C 255.09375 132.046875 256.710938 132.941406 257.839844 132.382813 C 258.605469 131.894531 259.289063 130.84375 259.085938 129.542969 C 258.28125 120.734375 256.304688 100.324219 256.304688 100.324219 L 266.644531 104.671875 L 280.105469 84.003906 L 292.890625 104.808594 L 303.089844 100.730469 C 303.089844 100.730469 301.472656 120.359375 300.839844 129.519531 C 300.921875 130.640625 301.089844 131.355469 302.148438 131.957031 C 303.628906 132.519531 304.179688 131.957031 305.789063 131.078125 C 311.300781 126.609375 314.972656 122.628906 319.664063 117.613281 L 323.109375 126.917969 L 341.015625 124.121094 L 339.804688 143.710938 L 345.933594 146.296875 L 307.984375 179.207031 L 313.957031 187.011719 L 283.234375 184.507813 L 279.964844 189.675781 L 276.976563 184.78125 L 245.421875 186.824219 L 251.808594 179.613281 L 213.324219 145.882813 L 219.996094 143.980469 L 218.769531 123.855469 L 236.855469 126.707031 L 240.253906 118.277344 "/>
<path style=" stroke:none;fill-rule:nonzero;fill:rgb(3.898621%,12.199402%,25.498962%);fill-opacity:1;" d="M 19.410156 141.664063 L 44.988281 142.5625 L 65.851563 144.019531 L 84.355469 146.101563 L 97.039063 147.96875 C 97.039063 147.96875 96.960938 149.722656 97.242188 150.953125 C 97.5 152.183594 98.039063 153.902344 98.769531 155.246094 C 99.503906 156.589844 100.539063 157.804688 101.609375 158.921875 C 102.679688 160.03125 103.589844 160.765625 105.148438 161.898438 C 106.699219 163.03125 108.921875 164.433594 111.035156 165.574219 C 113.152344 166.71875 115.46875 167.617188 117.832031 168.695313 C 120.195313 169.773438 123.003906 171.027344 125.246094 172.023438 C 127.492188 173.015625 128.601563 173.351563 131.28125 174.65625 C 133.949219 175.957031 138.269531 178.265625 141.1875 179.988281 C 144.109375 181.71875 146.386719 183.214844 148.8125 184.917969 C 151.234375 186.613281 153.15625 188.046875 155.746094 190.179688 C 158.328125 192.316406 161.304688 195.046875 164.273438 197.8125 C 167.234375 200.5625 170.433594 203.378906 173.488281 206.746094 C 176.546875 210.117188 179.765625 214.234375 182.496094 218.046875 C 185.234375 221.859375 187.933594 226.121094 189.914063 229.550781 C 191.882813 232.976563 193.394531 236.144531 194.488281 238.492188 C 195.585938 240.84375 196.636719 243.550781 196.636719 243.550781 C 196.636719 243.550781 199.066406 240.003906 200.53125 237.632813 C 201.984375 235.261719 204.3125 232.332031 205.96875 229.402344 C 207.632813 226.46875 210.164063 223.203125 212.320313 220.378906 C 214.484375 217.558594 217.210938 214.394531 219.253906 211.925781 C 221.296875 209.457031 222.835938 207.527344 224.585938 205.550781 C 226.347656 203.5625 229.140625 200.648438 229.140625 200.648438 L 214.035156 200.507813 C 214.035156 200.507813 216.328125 195.609375 217.742188 192.632813 C 219.15625 189.648438 220.953125 185.804688 222.5625 182.925781 C 224.175781 180.035156 225.609375 177.839844 227.226563 175.226563 C 228.84375 172.613281 232.332031 167.03125 232.332031 167.03125 L 245.980469 179.230469 L 236.28125 191.085938 C 236.28125 191.085938 241.203125 190.828125 245.097656 190.652344 C 248.996094 190.484375 254.371094 190.074219 258.070313 189.808594 C 260.539063 189.640625 267.335938 188.796875 267.335938 188.796875 C 267.335938 188.796875 261.144531 194.183594 257.628906 197.457031 C 254.113281 200.738281 249.152344 205.011719 246.304688 208.484375 C 243.3125 212.128906 241.503906 213.632813 238.21875 217.421875 C 234.9375 221.207031 230.296875 226.703125 226.71875 231.285156 C 223.140625 235.863281 220.011719 240.222656 216.738281 244.871094 C 213.464844 249.511719 210.304688 254.191406 207.101563 259.148438 C 203.902344 264.101563 200.933594 268.824219 197.539063 274.605469 C 194.136719 280.390625 186.792969 293.867188 186.792969 293.867188 C 186.792969 293.867188 183.253906 284.628906 181.460938 279.875 C 179.660156 275.121094 178.097656 270.15625 176 265.332031 C 173.898438 260.507813 171.269531 255.671875 168.839844 250.96875 C 166.410156 246.261719 163.847656 241.414063 161.425781 237.109375 C 159.003906 232.796875 157.316406 229.832031 154.355469 225.117188 C 151.394531 220.394531 147.09375 213.746094 143.546875 208.894531 C 140 204.054688 136.226563 199.5 133.21875 196.003906 C 130.210938 192.511719 128.425781 190.515625 125.664063 187.828125 C 122.90625 185.136719 119.675781 182.320313 116.65625 179.925781 C 113.632813 177.527344 110.601563 175.273438 107.570313 173.410156 C 104.546875 171.542969 101.328125 169.871094 98.5625 168.695313 C 95.792969 167.519531 93.511719 166.957031 91.371094 166.300781 C 89.230469 165.640625 87.621094 165.324219 85.539063 164.875 C 83.464844 164.417969 80.441406 163.773438 77.222656 163.128906 C 74.015625 162.476563 71.457031 161.867188 66.542969 160.589844 C 61.628906 159.300781 53.953125 157.273438 49.144531 155.804688 C 44.335938 154.332031 40.996094 153.171875 37.636719 151.917969 C 34.28125 150.671875 31.21875 149.375 28.972656 148.386719 C 26.730469 147.398438 24.121094 146.101563 24.121094 146.101563 C 24.121094 146.101563 21.269531 144.339844 20.519531 143.535156 C 19.773438 142.726563 19.410156 141.664063 19.410156 141.664063 "/>
<path style=" stroke:none;fill-rule:nonzero;fill:rgb(100%,100%,100%);fill-opacity:1;" d="M 289.980469 201.929688 L 289.980469 195.640625 L 287.570313 195.640625 L 287.570313 194.359375 L 294.027344 194.359375 L 294.027344 195.640625 L 291.625 195.640625 L 291.625 201.929688 L 289.980469 201.929688 "/>
<path style=" stroke:none;fill-rule:nonzero;fill:rgb(100%,100%,100%);fill-opacity:1;" d="M 295.070313 201.929688 L 295.070313 194.359375 L 297.535156 194.359375 L 299.007813 199.503906 L 300.445313 194.359375 L 302.910156 194.359375 L 302.910156 201.929688 L 301.402344 201.929688 L 301.402344 195.96875 L 299.792969 201.929688 L 298.1875 201.929688 L 296.59375 195.96875 L 296.59375 201.929688 L 295.070313 201.929688 "/>
</g>
</svg>
